<?xml version="1.0" encoding="UTF-8" standalone="no"?>
<!-- Created with Inkscape (http://www.inkscape.org/) -->
<svg
   xmlns:dc="http://purl.org/dc/elements/1.1/"
   xmlns:cc="http://web.resource.org/cc/"
   xmlns:rdf="http://www.w3.org/1999/02/22-rdf-syntax-ns#"
   xmlns:svg="http://www.w3.org/2000/svg"
   xmlns="http://www.w3.org/2000/svg"
   xmlns:xlink="http://www.w3.org/1999/xlink"
   xmlns:sodipodi="http://sodipodi.sourceforge.net/DTD/sodipodi-0.dtd"
   xmlns:inkscape="http://www.inkscape.org/namespaces/inkscape"
   id="licenseplate"
   sodipodi:version="0.32"
   inkscape:version="0.45"
   inkscape:output_extension="org.inkscape.output.svg.inkscape"
   version="1.0"
   sodipodi:modified="true">
  <defs
     id="defs4">
    <g
       id="s">
      <g
         id="c">
        <path
           transform="matrix(0.9510565,0.309017,-0.309017,0.9510565,0,-1)"
           d="M 0,0 L 0,1 L 0.5,1 L 0,0 z "
           id="t" />
        <use
           id="use3302"
           transform="scale(-1,1)"
           xlink:href="#t"
           x="0"
           y="0"
           width="744.09448"
           height="1052.3622" />
      </g>
      <g
         id="a">
        <use
           id="use3305"
           transform="matrix(0.309017,0.9510565,-0.9510565,0.309017,0,0)"
           xlink:href="#c"
           x="0"
           y="0"
           width="744.09448"
           height="1052.3622" />
        <use
           id="use3307"
           transform="matrix(-0.809017,0.5877853,-0.5877853,-0.809017,0,0)"
           xlink:href="#c"
           x="0"
           y="0"
           width="744.09448"
           height="1052.3622" />
      </g>
      <use
         id="use3309"
         transform="scale(-1,1)"
         xlink:href="#a"
         x="0"
         y="0"
         width="744.09448"
         height="1052.3622" />
    </g>
  </defs>
  <g
     inkscape:label="Capa 1"
     inkscape:groupmode="layer"
     id="main_layer">
    <g
       id="g2245">
      <rect
         ry="4.8052483"
         y="13.629746"
         x="12.446781"
         height="64.377266"
         width="331.70297"
         id="rect2243"
         style="fill:#ffffff;fill-opacity:1;stroke:#ffffff;stroke-width:2.75635719;stroke-linecap:round;stroke-miterlimit:4;stroke-dasharray:none;stroke-opacity:1" />
      <path
         id="rect2221"
         d="M 16.1875,9.8125 C 11.873487,9.8125 8.3125,13.342238 8.3125,17.65625 L 8.3125,74.21875 C 8.3125,78.532763 11.873487,82.093751 16.1875,82.09375 L 339.15625,82.09375 C 343.47026,82.09375 347.03124,78.53276 347.03125,74.21875 L 347.03125,17.65625 C 347.03125,13.342237 343.47026,9.8125 339.15625,9.8125 L 16.1875,9.8125 z M 16.1875,15.1875 L 339.15625,15.1875 C 340.58125,15.1875 341.65625,16.231245 341.65625,17.65625 L 341.65625,74.21875 C 341.65625,75.64376 340.58125,76.6875 339.15625,76.6875 L 16.1875,76.6875 C 14.762496,76.6875 13.71875,75.643755 13.71875,74.21875 L 13.71875,17.65625 C 13.71875,16.231247 14.762495,15.1875 16.1875,15.1875 z "
         style="fill:#ffffff;fill-opacity:1;stroke:none;stroke-width:5.38288307;stroke-miterlimit:4;stroke-dasharray:none;stroke-opacity:1" />
      <path
         sodipodi:nodetypes="ccccccc"
         id="path3214"
         d="M 42.868685,11.16329 L 42.868685,80.106196 L 16.327325,80.106196 C 13.202305,80.094406 11.615076,78.544836 11.182541,75.840566 L 11.276562,16.466591 C 11.655475,13.30997 13.25521,11.374171 16.327325,10.910752 L 42.868685,11.16329 z "
         style="fill:#003399;fill-opacity:1;fill-rule:evenodd;stroke:#003399;stroke-width:1px;stroke-linecap:butt;stroke-linejoin:miter;stroke-opacity:1" />
      <g
         id="g3313"
         transform="matrix(1.6138444,0,0,1.6138444,27.337182,32.052517)"
         style="fill:#ffcc00">
        <use
           id="use3315"
           y="-6"
           xlink:href="#s"
           x="0"
           width="744.09448"
           height="1052.3622" />
        <use
           id="use3317"
           y="6"
           xlink:href="#s"
           x="0"
           width="744.09448"
           height="1052.3622" />
        <g
           id="l">
          <use
             id="use3320"
             x="-6"
             xlink:href="#s"
             y="0"
             width="744.09448"
             height="1052.3622" />
          <use
             id="use3322"
             transform="matrix(-0.809017,-0.5877853,0.5877853,-0.809017,-3,-5.1961524)"
             xlink:href="#s"
             x="0"
             y="0"
             width="744.09448"
             height="1052.3622" />
          <use
             id="use3324"
             transform="matrix(-0.809017,0.5877853,-0.5877853,-0.809017,-5.1961524,-3)"
             xlink:href="#s"
             x="0"
             y="0"
             width="744.09448"
             height="1052.3622" />
          <use
             id="use3326"
             transform="matrix(0.309017,0.9510565,-0.9510565,0.309017,-5.1961524,3)"
             xlink:href="#s"
             x="0"
             y="0"
             width="744.09448"
             height="1052.3622" />
          <use
             id="use3328"
             transform="matrix(0.309017,0.9510565,-0.9510565,0.309017,-3,5.1961524)"
             xlink:href="#s"
             x="0"
             y="0"
             width="744.09448"
             height="1052.3622" />
        </g>
        <use
           id="use3330"
           transform="scale(-1,1)"
           xlink:href="#l"
           x="0"
           y="0"
           width="744.09448"
           height="1052.3622" />
      </g>
      <path
         id="path6188"
         d="M 16.187921,9.8129459 C 11.873908,9.8129459 8.3129208,13.342684 8.3129208,17.656696 L 8.3129208,74.219196 C 8.3129208,78.533209 11.873908,82.094197 16.187921,82.094196 L 339.15667,82.094196 C 343.47068,82.094196 347.03166,78.533206 347.03167,74.219196 L 347.03167,17.656696 C 347.03167,13.342683 343.47068,9.8129459 339.15667,9.8129459 L 16.187921,9.8129459 z M 16.187921,15.187946 L 339.15667,15.187946 C 340.58167,15.187946 341.65667,16.231691 341.65667,17.656696 L 341.65667,74.219196 C 341.65667,75.644206 340.58167,76.687946 339.15667,76.687946 L 16.187921,76.687946 C 14.762917,76.687946 13.719171,75.644201 13.719171,74.219196 L 13.719171,17.656696 C 13.719171,16.231693 14.762916,15.187946 16.187921,15.187946 z "
         style="fill:#ffffff;fill-opacity:1;stroke:#000000;stroke-width:0.2;stroke-miterlimit:4;stroke-dasharray:none;stroke-opacity:1" />
      <g
         transform="matrix(1,0,0,-1,-1.073e-4,91.897696)"
         id="g8166">
      </g>
      <text id="licenseplate_number" x="60" y="68"
        style="font-size:60px;font-style:normal;font-weight:normal;fill:#000000;fill-opacity:1;stroke:none;stroke-width:1px;stroke-linecap:butt;stroke-linejoin:miter;stroke-opacity:1;font-family: sans-serif"
      >
      </text>
    </g>
  </g>
</svg>
